<?xml version="1.0" standalone="no"?>
<!DOCTYPE svg PUBLIC "-//W3C//DTD SVG 20010904//EN"
 "http://www.w3.org/TR/2001/REC-SVG-20010904/DTD/svg10.dtd">
<svg version="1.0" xmlns="http://www.w3.org/2000/svg"
 width="1000.000000pt" height="1000.000000pt" viewBox="0 0 1000.000000 1000.000000"
 preserveAspectRatio="xMidYMid meet">
<metadata>
Created by potrace 1.16, written by Peter Selinger 2001-2019
</metadata>
<g transform="translate(0.000000,1000.000000) scale(0.100000,-0.100000)"
fill="#000000" stroke="none">
<path d="M7632 5831 c-65 -22 -118 -72 -156 -145 -24 -46 -28 -63 -24 -105 7
-69 50 -137 112 -176 45 -27 57 -30 136 -30 79 0 91 3 136 30 72 45 108 108
112 202 4 64 1 80 -23 128 -39 81 -79 107 -168 112 -52 2 -87 -2 -125 -16z"/>
<path d="M6745 5589 c-79 -9 -177 -28 -192 -38 -6 -3 -25 -67 -42 -141 -18
-74 -34 -143 -37 -152 -4 -14 6 -13 83 9 70 20 112 26 203 27 178 2 230 -31
230 -144 0 -29 -3 -50 -7 -48 -109 54 -142 67 -187 72 -121 16 -300 -72 -363
-176 -18 -29 -35 -72 -39 -95 l-6 -41 171 -201 c94 -110 171 -203 171 -206 0
-3 -28 -4 -62 -1 -65 4 -128 23 -178 53 -16 9 -33 14 -37 9 -11 -11 32 -42
107 -79 61 -30 72 -32 170 -31 125 0 198 24 261 83 l39 38 0 -65 0 -65 48 6
c26 3 115 11 198 18 l152 12 7 246 c5 135 9 329 9 431 1 184 1 185 -28 247
-35 76 -113 154 -190 189 -107 49 -289 65 -481 43z m149 -699 c47 -17 66 -46
66 -98 0 -40 -5 -53 -27 -75 -41 -38 -94 -57 -163 -57 -63 0 -115 22 -107 44
3 7 -1 20 -9 31 -53 72 40 161 173 164 23 1 53 -3 67 -9z"/>
<path d="M5836 5518 c5 -8 77 -95 159 -192 146 -173 182 -222 134 -181 -13 11
-19 13 -13 5 27 -36 6 -62 -181 -217 -102 -85 -150 -131 -145 -137 4 -3 123
83 265 190 143 108 269 202 280 210 20 14 20 15 -12 77 -58 111 -161 210 -230
220 -17 3 -36 8 -41 11 -16 9 -66 18 -146 23 -68 5 -77 4 -70 -9z"/>
</g>
</svg>
